<svg xmlns="http://www.w3.org/2000/svg" width="1600" height="900" viewBox="0 0 1600 900">
  <rect width="1600" height="900" rx="36" fill="#0B111C"/>
  <g opacity="0.07">
    <path d="M0 110H1600M0 220H1600M0 330H1600M0 440H1600M0 550H1600M0 660H1600M0 770H1600" stroke="#A9B8CB"/>
    <path d="M120 0V900M240 0V900M360 0V900M480 0V900M600 0V900M720 0V900M840 0V900M960 0V900M1080 0V900M1200 0V900M1320 0V900M1440 0V900" stroke="#A9B8CB"/>
  </g>

  <rect x="96" y="92" width="1408" height="716" rx="34" fill="#101827" stroke="#24364C" stroke-width="2"/>
  <rect x="96" y="92" width="10" height="716" rx="5" fill="#E3C676"/>

  <g opacity="0.34">
    <rect x="1050" y="176" width="108" height="254" rx="22" fill="#111A28" stroke="#6C4A4A" stroke-width="2"/>
    <rect x="1190" y="154" width="108" height="276" rx="22" fill="#111A28" stroke="#59D9F5" stroke-width="2.2"/>
    <rect x="1330" y="132" width="108" height="298" rx="22" fill="#111A28" stroke="#E3C676" stroke-width="2.2"/>
    <path d="M1104 306H1190" stroke="#627892" stroke-width="4"/>
    <path d="M1244 284H1330" stroke="#59D9F5" stroke-width="4"/>
    <path d="M1384 262H1470" stroke="#E3C676" stroke-width="4"/>
    <rect x="1114" y="506" width="270" height="60" rx="18" fill="#0F1725" stroke="#31475D"/>
    <text x="1249" y="545" text-anchor="middle" fill="#D5DEE8" font-size="26" font-family="PingFang SC, Microsoft YaHei, sans-serif">25 → 17 → 8</text>
  </g>

  <g font-family="PingFang SC, Hiragino Sans GB, Microsoft YaHei, Arial, sans-serif">
    <rect x="154" y="156" width="82" height="7" rx="3.5" fill="#E3C676"/>
    <text x="260" y="170" fill="#E3C676" font-size="32" font-weight="800">让 Agent 设计出高质量测试用例 · 连载第 4 篇</text>
    <text x="154" y="340" fill="#F3F6FB" font-size="108" font-weight="900">精准增量</text>
    <text x="154" y="466" fill="#F3F6FB" font-size="72" font-weight="850">别再每次从零开始</text>
    <rect x="154" y="548" width="760" height="76" rx="22" fill="#111C2C" stroke="#59D9F5" stroke-width="1.8"/>
    <text x="194" y="597" fill="#D4DFEB" font-size="34" font-weight="750">先识别旧覆盖，再只保留真正新增的风险点</text>
    <g transform="translate(1106 540)">
      <rect x="0" y="0" width="250" height="72" rx="22" fill="#141C2C" stroke="#E3C676" stroke-width="1.8"/>
      <text x="125" y="46" text-anchor="middle" fill="#F0D78E" font-size="30" font-weight="900">INCREMENT 04</text>
    </g>
    <text x="154" y="738" fill="#D3DCE6" font-size="30" font-weight="500">不是少写，而是先知道什么已经写过。</text>
  </g>
</svg>
