<?xml version="1.0" encoding="UTF-8"?>
<svg xmlns="http://www.w3.org/2000/svg" width="1200" height="1320" viewBox="0 0 1200 1320">
  <defs>
    <radialGradient id="g1" cx="18%" cy="9%" r="45%"><stop offset="0" stop-color="#19d3f3" stop-opacity=".22"/><stop offset="1" stop-color="#19d3f3" stop-opacity="0"/></radialGradient>
    <radialGradient id="g2" cx="86%" cy="16%" r="38%"><stop offset="0" stop-color="#f4b95a" stop-opacity=".16"/><stop offset="1" stop-color="#f4b95a" stop-opacity="0"/></radialGradient>
    <filter id="shadow" x="-20%" y="-20%" width="140%" height="140%"><feDropShadow dx="0" dy="18" stdDeviation="22" flood-color="#000" flood-opacity=".38"/></filter>
  </defs>
  <rect width="1200" height="1320" fill="#07111f"/>
  <rect width="1200" height="1320" fill="url(#g1)"/>
  <rect width="1200" height="1320" fill="url(#g2)"/>
  <g opacity=".22"><line x1="0" y1="0" x2="0" y2="1320" stroke="#8fb0dc" stroke-width="0.55" stroke-linecap="round" /><line x1="42" y1="0" x2="42" y2="1320" stroke="#8fb0dc" stroke-width="0.55" stroke-linecap="round" /><line x1="84" y1="0" x2="84" y2="1320" stroke="#8fb0dc" stroke-width="0.55" stroke-linecap="round" /><line x1="126" y1="0" x2="126" y2="1320" stroke="#8fb0dc" stroke-width="0.55" stroke-linecap="round" /><line x1="168" y1="0" x2="168" y2="1320" stroke="#8fb0dc" stroke-width="0.55" stroke-linecap="round" /><line x1="210" y1="0" x2="210" y2="1320" stroke="#8fb0dc" stroke-width="0.55" stroke-linecap="round" /><line x1="252" y1="0" x2="252" y2="1320" stroke="#8fb0dc" stroke-width="0.55" stroke-linecap="round" /><line x1="294" y1="0" x2="294" y2="1320" stroke="#8fb0dc" stroke-width="0.55" stroke-linecap="round" /><line x1="336" y1="0" x2="336" y2="1320" stroke="#8fb0dc" stroke-width="0.55" stroke-linecap="round" /><line x1="378" y1="0" x2="378" y2="1320" stroke="#8fb0dc" stroke-width="0.55" stroke-linecap="round" /><line x1="420" y1="0" x2="420" y2="1320" stroke="#8fb0dc" stroke-width="0.55" stroke-linecap="round" /><line x1="462" y1="0" x2="462" y2="1320" stroke="#8fb0dc" stroke-width="0.55" stroke-linecap="round" /><line x1="504" y1="0" x2="504" y2="1320" stroke="#8fb0dc" stroke-width="0.55" stroke-linecap="round" /><line x1="546" y1="0" x2="546" y2="1320" stroke="#8fb0dc" stroke-width="0.55" stroke-linecap="round" /><line x1="588" y1="0" x2="588" y2="1320" stroke="#8fb0dc" stroke-width="0.55" stroke-linecap="round" /><line x1="630" y1="0" x2="630" y2="1320" stroke="#8fb0dc" stroke-width="0.55" stroke-linecap="round" /><line x1="672" y1="0" x2="672" y2="1320" stroke="#8fb0dc" stroke-width="0.55" stroke-linecap="round" /><line x1="714" y1="0" x2="714" y2="1320" stroke="#8fb0dc" stroke-width="0.55" stroke-linecap="round" /><line x1="756" y1="0" x2="756" y2="1320" stroke="#8fb0dc" stroke-width="0.55" stroke-linecap="round" /><line x1="798" y1="0" x2="798" y2="1320" stroke="#8fb0dc" stroke-width="0.55" stroke-linecap="round" /><line x1="840" y1="0" x2="840" y2="1320" stroke="#8fb0dc" stroke-width="0.55" stroke-linecap="round" /><line x1="882" y1="0" x2="882" y2="1320" stroke="#8fb0dc" stroke-width="0.55" stroke-linecap="round" /><line x1="924" y1="0" x2="924" y2="1320" stroke="#8fb0dc" stroke-width="0.55" stroke-linecap="round" /><line x1="966" y1="0" x2="966" y2="1320" stroke="#8fb0dc" stroke-width="0.55" stroke-linecap="round" /><line x1="1008" y1="0" x2="1008" y2="1320" stroke="#8fb0dc" stroke-width="0.55" stroke-linecap="round" /><line x1="1050" y1="0" x2="1050" y2="1320" stroke="#8fb0dc" stroke-width="0.55" stroke-linecap="round" /><line x1="1092" y1="0" x2="1092" y2="1320" stroke="#8fb0dc" stroke-width="0.55" stroke-linecap="round" /><line x1="1134" y1="0" x2="1134" y2="1320" stroke="#8fb0dc" stroke-width="0.55" stroke-linecap="round" /><line x1="1176" y1="0" x2="1176" y2="1320" stroke="#8fb0dc" stroke-width="0.55" stroke-linecap="round" /><line x1="0" y1="0" x2="1200" y2="0" stroke="#8fb0dc" stroke-width="0.55" stroke-linecap="round" /><line x1="0" y1="42" x2="1200" y2="42" stroke="#8fb0dc" stroke-width="0.55" stroke-linecap="round" /><line x1="0" y1="84" x2="1200" y2="84" stroke="#8fb0dc" stroke-width="0.55" stroke-linecap="round" /><line x1="0" y1="126" x2="1200" y2="126" stroke="#8fb0dc" stroke-width="0.55" stroke-linecap="round" /><line x1="0" y1="168" x2="1200" y2="168" stroke="#8fb0dc" stroke-width="0.55" stroke-linecap="round" /><line x1="0" y1="210" x2="1200" y2="210" stroke="#8fb0dc" stroke-width="0.55" stroke-linecap="round" /><line x1="0" y1="252" x2="1200" y2="252" stroke="#8fb0dc" stroke-width="0.55" stroke-linecap="round" /><line x1="0" y1="294" x2="1200" y2="294" stroke="#8fb0dc" stroke-width="0.55" stroke-linecap="round" /><line x1="0" y1="336" x2="1200" y2="336" stroke="#8fb0dc" stroke-width="0.55" stroke-linecap="round" /><line x1="0" y1="378" x2="1200" y2="378" stroke="#8fb0dc" stroke-width="0.55" stroke-linecap="round" /><line x1="0" y1="420" x2="1200" y2="420" stroke="#8fb0dc" stroke-width="0.55" stroke-linecap="round" /><line x1="0" y1="462" x2="1200" y2="462" stroke="#8fb0dc" stroke-width="0.55" stroke-linecap="round" /><line x1="0" y1="504" x2="1200" y2="504" stroke="#8fb0dc" stroke-width="0.55" stroke-linecap="round" /><line x1="0" y1="546" x2="1200" y2="546" stroke="#8fb0dc" stroke-width="0.55" stroke-linecap="round" /><line x1="0" y1="588" x2="1200" y2="588" stroke="#8fb0dc" stroke-width="0.55" stroke-linecap="round" /><line x1="0" y1="630" x2="1200" y2="630" stroke="#8fb0dc" stroke-width="0.55" stroke-linecap="round" /><line x1="0" y1="672" x2="1200" y2="672" stroke="#8fb0dc" stroke-width="0.55" stroke-linecap="round" /><line x1="0" y1="714" x2="1200" y2="714" stroke="#8fb0dc" stroke-width="0.55" stroke-linecap="round" /><line x1="0" y1="756" x2="1200" y2="756" stroke="#8fb0dc" stroke-width="0.55" stroke-linecap="round" /><line x1="0" y1="798" x2="1200" y2="798" stroke="#8fb0dc" stroke-width="0.55" stroke-linecap="round" /><line x1="0" y1="840" x2="1200" y2="840" stroke="#8fb0dc" stroke-width="0.55" stroke-linecap="round" /><line x1="0" y1="882" x2="1200" y2="882" stroke="#8fb0dc" stroke-width="0.55" stroke-linecap="round" /><line x1="0" y1="924" x2="1200" y2="924" stroke="#8fb0dc" stroke-width="0.55" stroke-linecap="round" /><line x1="0" y1="966" x2="1200" y2="966" stroke="#8fb0dc" stroke-width="0.55" stroke-linecap="round" /><line x1="0" y1="1008" x2="1200" y2="1008" stroke="#8fb0dc" stroke-width="0.55" stroke-linecap="round" /><line x1="0" y1="1050" x2="1200" y2="1050" stroke="#8fb0dc" stroke-width="0.55" stroke-linecap="round" /><line x1="0" y1="1092" x2="1200" y2="1092" stroke="#8fb0dc" stroke-width="0.55" stroke-linecap="round" /><line x1="0" y1="1134" x2="1200" y2="1134" stroke="#8fb0dc" stroke-width="0.55" stroke-linecap="round" /><line x1="0" y1="1176" x2="1200" y2="1176" stroke="#8fb0dc" stroke-width="0.55" stroke-linecap="round" /><line x1="0" y1="1218" x2="1200" y2="1218" stroke="#8fb0dc" stroke-width="0.55" stroke-linecap="round" /><line x1="0" y1="1260" x2="1200" y2="1260" stroke="#8fb0dc" stroke-width="0.55" stroke-linecap="round" /><line x1="0" y1="1302" x2="1200" y2="1302" stroke="#8fb0dc" stroke-width="0.55" stroke-linecap="round" /></g>
  <g>
    <rect x="58" y="61" width="52" height="4" rx="2" fill="#19d3f3"/>
    <text x="124" y="70" fill="#19d3f3" font-size="21" font-weight="850" text-anchor="start" font-family="PingFang SC, Hiragino Sans GB, Microsoft YaHei, Arial, sans-serif"><tspan x="124" dy="0">PART 03 · GATE SYSTEM</tspan></text>
    <text x="58" y="132" fill="#edf5ff" font-size="52" font-weight="900" text-anchor="start" font-family="PingFang SC, Hiragino Sans GB, Microsoft YaHei, Arial, sans-serif"><tspan x="58" dy="0">门禁校验三层防线</tspan></text>
    <text x="58" y="206" fill="#bdd0e6" font-size="23" font-weight="500" text-anchor="start" font-family="PingFang SC, Hiragino Sans GB, Microsoft YaHei, Arial, sans-serif"><tspan x="58" dy="0">当 Agent 说“完成了”，Runner 只相信文件、依赖和内容检查结果。</tspan></text>
    <rect x="960" y="58" width="182" height="86" rx="20" fill="#091624" stroke="#19d3f3" stroke-width="1.4" opacity="0.88"/>
    <text x="1051" y="96" fill="#19d3f3" font-size="30" font-weight="900" text-anchor="middle" font-family="PingFang SC, Hiragino Sans GB, Microsoft YaHei, Arial, sans-serif"><tspan x="1051" dy="0">3</tspan></text>
    <text x="1051" y="124" fill="#a8bbd2" font-size="16" font-weight="500" text-anchor="middle" font-family="PingFang SC, Hiragino Sans GB, Microsoft YaHei, Arial, sans-serif"><tspan x="1051" dy="0">防线</tspan></text>
  </g>
  <g filter="url(#shadow)">
      <rect x="58" y="320" width="330" height="420" rx="20" fill="#0b1627" stroke="#19d3f3" stroke-width="1.4" opacity="0.96"/><rect x="80" y="340" width="44" height="44" rx="14" fill="#19d3f3" opacity="0.18"/><text x="102" y="370" fill="#19d3f3" font-size="18" font-weight="900" text-anchor="middle" font-family="PingFang SC, Hiragino Sans GB, Microsoft YaHei, Arial, sans-serif"><tspan x="102" dy="0">01</tspan></text><text x="80" y="412" fill="#edf5ff" font-size="25" font-weight="850" text-anchor="start" font-family="PingFang SC, Hiragino Sans GB, Microsoft YaHei, Arial, sans-serif"><tspan x="80" dy="0">依赖校验</tspan></text><text x="80" y="452" fill="#a8bbd2" font-size="18" font-weight="500" text-anchor="start" font-family="PingFang SC, Hiragino Sans GB, Microsoft YaHei, Arial, sans-serif"><tspan x="80" dy="0">前置步骤必须完成</tspan></text><rect x="86" y="590" width="274" height="100" rx="16" fill="#0d1a2d" stroke="#263d59" stroke-width="1.4" opacity="1"/><text x="104" y="630" fill="#19d3f3" font-size="32" font-weight="900" text-anchor="start" font-family="PingFang SC, Hiragino Sans GB, Microsoft YaHei, Arial, sans-serif"><tspan x="104" dy="0">依赖未满足</tspan></text><text x="104" y="664" fill="#a8bbd2" font-size="16" font-weight="500" text-anchor="start" font-family="PingFang SC, Hiragino Sans GB, Microsoft YaHei, Arial, sans-serif"><tspan x="104" dy="0">校验失败即阻塞推进</tspan></text><line x1="404" y1="520" x2="442" y2="520" stroke="#19d3f3" stroke-width="4" stroke-linecap="round" /><path d="M 428 511 L 442 520 L 428 529" fill="none" stroke="#19d3f3" stroke-width="4" stroke-linecap="round" stroke-linejoin="round"/><rect x="432" y="320" width="330" height="420" rx="20" fill="#0b1627" stroke="#f4b95a" stroke-width="1.4" opacity="0.96"/><rect x="454" y="340" width="44" height="44" rx="14" fill="#f4b95a" opacity="0.18"/><text x="476" y="370" fill="#f4b95a" font-size="18" font-weight="900" text-anchor="middle" font-family="PingFang SC, Hiragino Sans GB, Microsoft YaHei, Arial, sans-serif"><tspan x="476" dy="0">02</tspan></text><text x="454" y="412" fill="#edf5ff" font-size="25" font-weight="850" text-anchor="start" font-family="PingFang SC, Hiragino Sans GB, Microsoft YaHei, Arial, sans-serif"><tspan x="454" dy="0">存在性校验</tspan></text><text x="454" y="452" fill="#a8bbd2" font-size="18" font-weight="500" text-anchor="start" font-family="PingFang SC, Hiragino Sans GB, Microsoft YaHei, Arial, sans-serif"><tspan x="454" dy="0">目标产物必须存在</tspan></text><rect x="460" y="590" width="274" height="100" rx="16" fill="#0d1a2d" stroke="#263d59" stroke-width="1.4" opacity="1"/><text x="478" y="630" fill="#f4b95a" font-size="32" font-weight="900" text-anchor="start" font-family="PingFang SC, Hiragino Sans GB, Microsoft YaHei, Arial, sans-serif"><tspan x="478" dy="0">产物不存在</tspan></text><text x="478" y="664" fill="#a8bbd2" font-size="16" font-weight="500" text-anchor="start" font-family="PingFang SC, Hiragino Sans GB, Microsoft YaHei, Arial, sans-serif"><tspan x="478" dy="0">校验失败即阻塞推进</tspan></text><line x1="778" y1="520" x2="816" y2="520" stroke="#19d3f3" stroke-width="4" stroke-linecap="round" /><path d="M 802 511 L 816 520 L 802 529" fill="none" stroke="#19d3f3" stroke-width="4" stroke-linecap="round" stroke-linejoin="round"/><rect x="806" y="320" width="330" height="420" rx="20" fill="#0b1627" stroke="#ff6b7a" stroke-width="1.4" opacity="0.96"/><rect x="828" y="340" width="44" height="44" rx="14" fill="#ff6b7a" opacity="0.18"/><text x="850" y="370" fill="#ff6b7a" font-size="18" font-weight="900" text-anchor="middle" font-family="PingFang SC, Hiragino Sans GB, Microsoft YaHei, Arial, sans-serif"><tspan x="850" dy="0">03</tspan></text><text x="828" y="412" fill="#edf5ff" font-size="25" font-weight="850" text-anchor="start" font-family="PingFang SC, Hiragino Sans GB, Microsoft YaHei, Arial, sans-serif"><tspan x="828" dy="0">内容校验</tspan></text><text x="828" y="452" fill="#a8bbd2" font-size="18" font-weight="500" text-anchor="start" font-family="PingFang SC, Hiragino Sans GB, Microsoft YaHei, Arial, sans-serif"><tspan x="828" dy="0">标题、表格、有效数据必须合格</tspan></text><rect x="834" y="590" width="274" height="100" rx="16" fill="#0d1a2d" stroke="#263d59" stroke-width="1.4" opacity="1"/><text x="852" y="630" fill="#ff6b7a" font-size="32" font-weight="900" text-anchor="start" font-family="PingFang SC, Hiragino Sans GB, Microsoft YaHei, Arial, sans-serif"><tspan x="852" dy="0">内容未合格</tspan></text><text x="852" y="664" fill="#a8bbd2" font-size="16" font-weight="500" text-anchor="start" font-family="PingFang SC, Hiragino Sans GB, Microsoft YaHei, Arial, sans-serif"><tspan x="852" dy="0">校验失败即阻塞推进</tspan></text>
      <rect x="58" y="800" width="1084" height="340" rx="20" fill="#0d1a2d" stroke="#2f4c6e" stroke-width="1.4" opacity="1"/>
      <text x="86" y="850" fill="#edf5ff" font-size="30" font-weight="900" text-anchor="start" font-family="PingFang SC, Hiragino Sans GB, Microsoft YaHei, Arial, sans-serif"><tspan x="86" dy="0">真实拦截样例</tspan></text>
      <rect x="86" y="890" width="316" height="92" rx="16" fill="#0b1627" stroke="#f4b95a" stroke-width="1.4" opacity="1"/>
          <rect x="108" y="908" width="44" height="44" rx="14" fill="#f4b95a" opacity=".18"/>
          <text x="130" y="936" fill="#f4b95a" font-size="17" font-weight="900" text-anchor="middle" font-family="PingFang SC, Hiragino Sans GB, Microsoft YaHei, Arial, sans-serif"><tspan x="130" dy="0">1</tspan></text>
          <text x="172" y="932" fill="#edf5ff" font-size="23" font-weight="850" text-anchor="start" font-family="PingFang SC, Hiragino Sans GB, Microsoft YaHei, Arial, sans-serif"><tspan x="172" dy="0">缺失标题</tspan></text>
          <text x="172" y="962" fill="#a8bbd2" font-size="16" font-weight="500" text-anchor="start" font-family="PingFang SC, Hiragino Sans GB, Microsoft YaHei, Arial, sans-serif"><tspan x="172" dy="0">Agent 必须回去补齐。</tspan></text><rect x="430" y="890" width="316" height="92" rx="16" fill="#0b1627" stroke="#f4b95a" stroke-width="1.4" opacity="1"/>
          <rect x="452" y="908" width="44" height="44" rx="14" fill="#f4b95a" opacity=".18"/>
          <text x="474" y="936" fill="#f4b95a" font-size="17" font-weight="900" text-anchor="middle" font-family="PingFang SC, Hiragino Sans GB, Microsoft YaHei, Arial, sans-serif"><tspan x="474" dy="0">2</tspan></text>
          <text x="516" y="932" fill="#edf5ff" font-size="23" font-weight="850" text-anchor="start" font-family="PingFang SC, Hiragino Sans GB, Microsoft YaHei, Arial, sans-serif"><tspan x="516" dy="0">标题无内容</tspan></text>
          <text x="516" y="962" fill="#a8bbd2" font-size="16" font-weight="500" text-anchor="start" font-family="PingFang SC, Hiragino Sans GB, Microsoft YaHei, Arial, sans-serif"><tspan x="516" dy="0">Agent 必须回去补齐。</tspan></text><rect x="774" y="890" width="316" height="92" rx="16" fill="#0b1627" stroke="#f4b95a" stroke-width="1.4" opacity="1"/>
          <rect x="796" y="908" width="44" height="44" rx="14" fill="#f4b95a" opacity=".18"/>
          <text x="818" y="936" fill="#f4b95a" font-size="17" font-weight="900" text-anchor="middle" font-family="PingFang SC, Hiragino Sans GB, Microsoft YaHei, Arial, sans-serif"><tspan x="818" dy="0">3</tspan></text>
          <text x="860" y="932" fill="#edf5ff" font-size="23" font-weight="850" text-anchor="start" font-family="PingFang SC, Hiragino Sans GB, Microsoft YaHei, Arial, sans-serif"><tspan x="860" dy="0">表格全占位符</tspan></text>
          <text x="860" y="962" fill="#a8bbd2" font-size="16" font-weight="500" text-anchor="start" font-family="PingFang SC, Hiragino Sans GB, Microsoft YaHei, Arial, sans-serif"><tspan x="860" dy="0">Agent 必须回去补齐。</tspan></text><rect x="86" y="1008" width="316" height="92" rx="16" fill="#0b1627" stroke="#ff6b7a" stroke-width="1.4" opacity="1"/>
          <rect x="108" y="1026" width="44" height="44" rx="14" fill="#ff6b7a" opacity=".18"/>
          <text x="130" y="1054" fill="#ff6b7a" font-size="17" font-weight="900" text-anchor="middle" font-family="PingFang SC, Hiragino Sans GB, Microsoft YaHei, Arial, sans-serif"><tspan x="130" dy="0">4</tspan></text>
          <text x="172" y="1050" fill="#edf5ff" font-size="23" font-weight="850" text-anchor="start" font-family="PingFang SC, Hiragino Sans GB, Microsoft YaHei, Arial, sans-serif"><tspan x="172" dy="0">依赖未满足</tspan></text>
          <text x="172" y="1080" fill="#a8bbd2" font-size="16" font-weight="500" text-anchor="start" font-family="PingFang SC, Hiragino Sans GB, Microsoft YaHei, Arial, sans-serif"><tspan x="172" dy="0">Agent 必须回去补齐。</tspan></text><rect x="430" y="1008" width="316" height="92" rx="16" fill="#0b1627" stroke="#ff6b7a" stroke-width="1.4" opacity="1"/>
          <rect x="452" y="1026" width="44" height="44" rx="14" fill="#ff6b7a" opacity=".18"/>
          <text x="474" y="1054" fill="#ff6b7a" font-size="17" font-weight="900" text-anchor="middle" font-family="PingFang SC, Hiragino Sans GB, Microsoft YaHei, Arial, sans-serif"><tspan x="474" dy="0">5</tspan></text>
          <text x="516" y="1050" fill="#edf5ff" font-size="23" font-weight="850" text-anchor="start" font-family="PingFang SC, Hiragino Sans GB, Microsoft YaHei, Arial, sans-serif"><tspan x="516" dy="0">产物文件不存在</tspan></text>
          <text x="516" y="1080" fill="#a8bbd2" font-size="16" font-weight="500" text-anchor="start" font-family="PingFang SC, Hiragino Sans GB, Microsoft YaHei, Arial, sans-serif"><tspan x="516" dy="0">Agent 必须回去补齐。</tspan></text><rect x="774" y="1008" width="316" height="92" rx="16" fill="#0b1627" stroke="#ff6b7a" stroke-width="1.4" opacity="1"/>
          <rect x="796" y="1026" width="44" height="44" rx="14" fill="#ff6b7a" opacity=".18"/>
          <text x="818" y="1054" fill="#ff6b7a" font-size="17" font-weight="900" text-anchor="middle" font-family="PingFang SC, Hiragino Sans GB, Microsoft YaHei, Arial, sans-serif"><tspan x="818" dy="0">6</tspan></text>
          <text x="860" y="1050" fill="#edf5ff" font-size="23" font-weight="850" text-anchor="start" font-family="PingFang SC, Hiragino Sans GB, Microsoft YaHei, Arial, sans-serif"><tspan x="860" dy="0">目标未达成</tspan></text>
          <text x="860" y="1080" fill="#a8bbd2" font-size="16" font-weight="500" text-anchor="start" font-family="PingFang SC, Hiragino Sans GB, Microsoft YaHei, Arial, sans-serif"><tspan x="860" dy="0">Agent 必须回去补齐。</tspan></text>
    </g>
</svg>