<?xml version="1.0" encoding="UTF-8"?>
<svg xmlns="http://www.w3.org/2000/svg" width="1200" height="511" viewBox="0 0 1200 511">
  <defs>
    <linearGradient id="bg" x1="0" y1="0" x2="1" y2="1">
      <stop offset="0" stop-color="#07111f"/>
      <stop offset="0.52" stop-color="#0b1728"/>
      <stop offset="1" stop-color="#111111"/>
    </linearGradient>
    <radialGradient id="accentGlow" cx="18%" cy="22%" r="55%">
      <stop offset="0" stop-color="#19d3f3" stop-opacity="0.32"/>
      <stop offset="1" stop-color="#19d3f3" stop-opacity="0"/>
    </radialGradient>
    <radialGradient id="secondGlow" cx="82%" cy="18%" r="48%">
      <stop offset="0" stop-color="#f4b95a" stop-opacity="0.18"/>
      <stop offset="1" stop-color="#f4b95a" stop-opacity="0"/>
    </radialGradient>
    <filter id="shadow" x="-20%" y="-20%" width="140%" height="140%">
      <feDropShadow dx="0" dy="18" stdDeviation="18" flood-color="#000000" flood-opacity="0.38"/>
    </filter>
  </defs>

  <rect width="1200" height="511" fill="url(#bg)"/>
  <rect width="1200" height="511" fill="url(#accentGlow)"/>
  <rect width="1200" height="511" fill="url(#secondGlow)"/>

  <g opacity="0.18">
    <line x1="0" y1="0" x2="0" y2="511" stroke="#8fb0dc" stroke-width="0.7"/><line x1="42" y1="0" x2="42" y2="511" stroke="#8fb0dc" stroke-width="0.7"/><line x1="84" y1="0" x2="84" y2="511" stroke="#8fb0dc" stroke-width="0.7"/><line x1="126" y1="0" x2="126" y2="511" stroke="#8fb0dc" stroke-width="0.7"/><line x1="168" y1="0" x2="168" y2="511" stroke="#8fb0dc" stroke-width="0.7"/><line x1="210" y1="0" x2="210" y2="511" stroke="#8fb0dc" stroke-width="0.7"/><line x1="252" y1="0" x2="252" y2="511" stroke="#8fb0dc" stroke-width="0.7"/><line x1="294" y1="0" x2="294" y2="511" stroke="#8fb0dc" stroke-width="0.7"/><line x1="336" y1="0" x2="336" y2="511" stroke="#8fb0dc" stroke-width="0.7"/><line x1="378" y1="0" x2="378" y2="511" stroke="#8fb0dc" stroke-width="0.7"/><line x1="420" y1="0" x2="420" y2="511" stroke="#8fb0dc" stroke-width="0.7"/><line x1="462" y1="0" x2="462" y2="511" stroke="#8fb0dc" stroke-width="0.7"/><line x1="504" y1="0" x2="504" y2="511" stroke="#8fb0dc" stroke-width="0.7"/><line x1="546" y1="0" x2="546" y2="511" stroke="#8fb0dc" stroke-width="0.7"/><line x1="588" y1="0" x2="588" y2="511" stroke="#8fb0dc" stroke-width="0.7"/><line x1="630" y1="0" x2="630" y2="511" stroke="#8fb0dc" stroke-width="0.7"/><line x1="672" y1="0" x2="672" y2="511" stroke="#8fb0dc" stroke-width="0.7"/><line x1="714" y1="0" x2="714" y2="511" stroke="#8fb0dc" stroke-width="0.7"/><line x1="756" y1="0" x2="756" y2="511" stroke="#8fb0dc" stroke-width="0.7"/><line x1="798" y1="0" x2="798" y2="511" stroke="#8fb0dc" stroke-width="0.7"/><line x1="840" y1="0" x2="840" y2="511" stroke="#8fb0dc" stroke-width="0.7"/><line x1="882" y1="0" x2="882" y2="511" stroke="#8fb0dc" stroke-width="0.7"/><line x1="924" y1="0" x2="924" y2="511" stroke="#8fb0dc" stroke-width="0.7"/><line x1="966" y1="0" x2="966" y2="511" stroke="#8fb0dc" stroke-width="0.7"/><line x1="1008" y1="0" x2="1008" y2="511" stroke="#8fb0dc" stroke-width="0.7"/><line x1="1050" y1="0" x2="1050" y2="511" stroke="#8fb0dc" stroke-width="0.7"/><line x1="1092" y1="0" x2="1092" y2="511" stroke="#8fb0dc" stroke-width="0.7"/><line x1="1134" y1="0" x2="1134" y2="511" stroke="#8fb0dc" stroke-width="0.7"/><line x1="1176" y1="0" x2="1176" y2="511" stroke="#8fb0dc" stroke-width="0.7"/><line x1="1218" y1="0" x2="1218" y2="511" stroke="#8fb0dc" stroke-width="0.7"/><line x1="1260" y1="0" x2="1260" y2="511" stroke="#8fb0dc" stroke-width="0.7"/>
    <line x1="0" y1="0" x2="1200" y2="0" stroke="#8fb0dc" stroke-width="0.7"/><line x1="0" y1="42" x2="1200" y2="42" stroke="#8fb0dc" stroke-width="0.7"/><line x1="0" y1="84" x2="1200" y2="84" stroke="#8fb0dc" stroke-width="0.7"/><line x1="0" y1="126" x2="1200" y2="126" stroke="#8fb0dc" stroke-width="0.7"/><line x1="0" y1="168" x2="1200" y2="168" stroke="#8fb0dc" stroke-width="0.7"/><line x1="0" y1="210" x2="1200" y2="210" stroke="#8fb0dc" stroke-width="0.7"/><line x1="0" y1="252" x2="1200" y2="252" stroke="#8fb0dc" stroke-width="0.7"/><line x1="0" y1="294" x2="1200" y2="294" stroke="#8fb0dc" stroke-width="0.7"/><line x1="0" y1="336" x2="1200" y2="336" stroke="#8fb0dc" stroke-width="0.7"/><line x1="0" y1="378" x2="1200" y2="378" stroke="#8fb0dc" stroke-width="0.7"/><line x1="0" y1="420" x2="1200" y2="420" stroke="#8fb0dc" stroke-width="0.7"/><line x1="0" y1="462" x2="1200" y2="462" stroke="#8fb0dc" stroke-width="0.7"/><line x1="0" y1="504" x2="1200" y2="504" stroke="#8fb0dc" stroke-width="0.7"/><line x1="0" y1="546" x2="1200" y2="546" stroke="#8fb0dc" stroke-width="0.7"/>
  </g>

  <g opacity="0.9">
    <path d="M 755 96 L 1058 96 Q 1088 96 1098 124 L 1140 246 Q 1150 276 1124 294 L 904 446 Q 880 462 852 452 L 702 396" fill="none" stroke="#19d3f3" stroke-width="2.2" opacity="0.38"/>
    <path d="M 794 132 L 1028 132 Q 1052 132 1061 154 L 1092 242 Q 1100 264 1080 278 L 908 398 Q 888 412 866 404 L 742 360" fill="none" stroke="#f4b95a" stroke-width="1.6" opacity="0.32"/>
    <circle cx="765" cy="96" r="5" fill="#19d3f3"/>
    <circle cx="1058" cy="96" r="5" fill="#19d3f3"/>
    <circle cx="1092" cy="242" r="5" fill="#f4b95a"/>
    <circle cx="904" cy="446" r="5" fill="#19d3f3"/>
  </g>

  <g filter="url(#shadow)">
    <rect x="70" y="62" width="1060" height="388" rx="28" fill="#0b1627" opacity="0.78" stroke="#294260" stroke-width="1.4"/>
    <rect x="70" y="62" width="7" height="388" rx="3.5" fill="#19d3f3"/>
  </g>

  <g>
    <rect x="112" y="104" width="62" height="5" rx="2.5" fill="#19d3f3"/>
    <text x="190" y="115" fill="#19d3f3" font-size="25" font-weight="800" text-anchor="start" font-family="PingFang SC, Hiragino Sans GB, Microsoft YaHei, Arial, sans-serif"><tspan x="190" dy="0">让 AI Agent 真正交付测试结果 · 连载第 1 篇</tspan></text>

    <text x="112" y="220" fill="#f2f8ff" font-size="62" font-weight="900" text-anchor="start" font-family="PingFang SC, Hiragino Sans GB, Microsoft YaHei, Arial, sans-serif"><tspan x="112" dy="0">会写用例 ≠ 能交付测试</tspan></text>
    <text x="112" y="294" fill="#f2f8ff" font-size="46" font-weight="850" text-anchor="start" font-family="PingFang SC, Hiragino Sans GB, Microsoft YaHei, Arial, sans-serif"><tspan x="112" dy="0">AI Agent 测试的真实困境</tspan></text>

    <rect x="112" y="336" width="610" height="52" rx="16" fill="#12243a" stroke="#19d3f3" stroke-width="1.2" opacity="0.92"/>
    <text x="138" y="370" fill="#cfe5f8" font-size="24" font-weight="750" text-anchor="start" font-family="PingFang SC, Hiragino Sans GB, Microsoft YaHei, Arial, sans-serif"><tspan x="138" dy="0">从用例生成到测试交付，中间隔着一整套工程约束</tspan></text>

    <g transform="translate(865 326)">
      <rect x="0" y="0" width="192" height="58" rx="18" fill="#101d31" stroke="#f4b95a" stroke-width="1.2"/>
      <text x="96" y="37" fill="#f4b95a" font-size="22" font-weight="900" text-anchor="middle" font-family="PingFang SC, Hiragino Sans GB, Microsoft YaHei, Arial, sans-serif"><tspan x="96" dy="0">PROBLEM 01</tspan></text>
    </g>
  </g>
</svg>